<svg width="64" height="64" viewBox="0 0 64 64" fill="none" xmlns="http://www.w3.org/2000/svg">
<path d="M37.325 10.6665C38.2871 10.6665 39.2313 10.9267 40.0576 11.4197C40.8838 11.9126 41.5613 12.6199 42.0183 13.4665L43.3143 15.8665C43.7713 16.7132 44.4489 17.4204 45.2751 17.9133C46.1014 18.4063 47.0456 18.6665 48.0077 18.6665H53.333C54.7475 18.6665 56.104 19.2284 57.1042 20.2286C58.1044 21.2288 58.6663 22.5853 58.6663 23.9998V47.9998C58.6663 49.4143 58.1044 50.7709 57.1042 51.7711C56.104 52.7713 54.7475 53.3332 53.333 53.3332H10.6663C9.25185 53.3332 7.8953 52.7713 6.8951 51.7711C5.89491 50.7709 5.33301 49.4143 5.33301 47.9998V23.9998C5.33301 22.5853 5.89491 21.2288 6.8951 20.2286C7.8953 19.2284 9.25185 18.6665 10.6663 18.6665H15.9917C16.9528 18.6666 17.8961 18.4069 18.7218 17.9149C19.5474 17.423 20.2248 16.7171 20.6823 15.8718L21.9863 13.4612C22.4438 12.6159 23.1212 11.91 23.9469 11.4181C24.7726 10.9261 25.7159 10.6665 26.677 10.6665H37.325Z" stroke="#99A1AF" stroke-width="4" stroke-linecap="round" stroke-linejoin="round"/>
<path d="M32 42.6665C36.4183 42.6665 40 39.0848 40 34.6665C40 30.2482 36.4183 26.6665 32 26.6665C27.5817 26.6665 24 30.2482 24 34.6665C24 39.0848 27.5817 42.6665 32 42.6665Z" stroke="#99A1AF" stroke-width="4" stroke-linecap="round" stroke-linejoin="round"/>
</svg>
