<svg width="40" height="40" viewBox="0 0 40 40" fill="none" xmlns="http://www.w3.org/2000/svg">
<path d="M31.6667 5H8.33333C6.49238 5 5 6.49238 5 8.33333V31.6667C5 33.5076 6.49238 35 8.33333 35H31.6667C33.5076 35 35 33.5076 35 31.6667V8.33333C35 6.49238 33.5076 5 31.6667 5Z" stroke="#364153" stroke-width="1.5" stroke-linecap="round" stroke-linejoin="round"/>
<path d="M15.0003 18.3334C16.8413 18.3334 18.3337 16.841 18.3337 15.0001C18.3337 13.1591 16.8413 11.6667 15.0003 11.6667C13.1594 11.6667 11.667 13.1591 11.667 15.0001C11.667 16.841 13.1594 18.3334 15.0003 18.3334Z" stroke="#364153" stroke-width="1.5" stroke-linecap="round" stroke-linejoin="round"/>
<path d="M35 24.9999L29.8567 19.8566C29.2316 19.2317 28.3839 18.8806 27.5 18.8806C26.6161 18.8806 25.7684 19.2317 25.1433 19.8566L10 34.9999" stroke="#364153" stroke-width="1.5" stroke-linecap="round" stroke-linejoin="round"/>
</svg>
