<svg width="18" height="21" viewBox="0 0 18 21" fill="none" xmlns="http://www.w3.org/2000/svg">
<path d="M8.75 0C13.5751 0 17.5 3.87314 17.5 8.66699C17.4999 11.6482 15.7615 14.5905 13.9189 16.7324C12.9864 17.8164 11.9961 18.732 11.123 19.3828C10.6874 19.7076 10.2686 19.9756 9.89062 20.166C9.53618 20.3445 9.13124 20.5 8.75 20.5C8.36876 20.5 7.96382 20.3445 7.60938 20.166C7.23137 19.9756 6.81263 19.7076 6.37695 19.3828C5.50392 18.732 4.51357 17.8164 3.58105 16.7324C1.73855 14.5905 0.000126416 11.6482 0 8.66699C0 3.87314 3.92493 0 8.75 0ZM8.75 5.25C7.09315 5.25 5.75 6.59315 5.75 8.25C5.75 9.90685 7.09315 11.25 8.75 11.25C10.4069 11.25 11.75 9.90685 11.75 8.25C11.75 6.59315 10.4069 5.25 8.75 5.25Z" fill="url(#paint0_linear_4258_2243)"/>
<defs>
<linearGradient id="paint0_linear_4258_2243" x1="39.75" y1="40.25" x2="11.0234" y2="51.9744" gradientUnits="userSpaceOnUse">
<stop offset="0.160244" stop-color="#8663F6"/>
<stop offset="0.442308" stop-color="#B56DF5"/>
<stop offset="0.535257" stop-color="#C470F5"/>
<stop offset="0.922419" stop-color="#57C2FF"/>
</linearGradient>
</defs>
</svg>
